# xmcd
#
# Track frame offsets:
#	182
#	18322
#	42170
#	61582
#	79682
#	97977
#	114877
#	128270
#	148150
#	167675
#	185257
#	201925
#	221447
#	236370
#
# Disc length: 3415 seconds
#
# Revision: 1
# Processed by: cddbd v1.4PL0 Copyright (c) Steve Scherf et al.
# Submitted via: audiograbber 1.82.00
#
DISCID=a80d550e
DTITLE=Georgie Fame And The Blue Flames - Blues, Ballads And Bop
DYEAR=1900
DGENRE=
TTITLE0=Barefootin'
TTITLE1=Saturday night fish fry
TTITLE2=Give a little more
TTITLE3=I love Jamaica
TTITLE4=Yeh yeh!
TTITLE5=Everything I own
TTITLE6=Rosetta
TTITLE7=Bring it on home to me
TTITLE8=Some day
TTITLE9=Getaway
TTITLE10=Lean on me
TTITLE11=Run away with me
TTITLE12=The ballad of Bonnie and Clyde
TTITLE13=That old rock 'n' roll
EXTD=
EXTT0=
EXTT1=
EXTT2=
EXTT3=
EXTT4=
EXTT5=
EXTT6=
EXTT7=
EXTT8=
EXTT9=
EXTT10=
EXTT11=
EXTT12=
EXTT13=
PLAYORDER=
